<?xml version="1.0" encoding="UTF-8" standalone="no"?>
<!-- Created with Inkscape (http://www.inkscape.org/) -->

<svg
   width="105mm"
   height="148mm"
   viewBox="0 0 105 148"
   version="1.1"
   id="svg1"
   inkscape:version="1.4.2 (f4327f4, 2025-05-13)"
   sodipodi:docname="final card.svg"
   xml:space="preserve"
   xmlns:inkscape="http://www.inkscape.org/namespaces/inkscape"
   xmlns:sodipodi="http://sodipodi.sourceforge.net/DTD/sodipodi-0.dtd"
   xmlns:xlink="http://www.w3.org/1999/xlink"
   xmlns="http://www.w3.org/2000/svg"
   xmlns:svg="http://www.w3.org/2000/svg"><sodipodi:namedview
     id="namedview1"
     pagecolor="#ffffff"
     bordercolor="#000000"
     borderopacity="0.25"
     inkscape:showpageshadow="2"
     inkscape:pageopacity="0.0"
     inkscape:pagecheckerboard="0"
     inkscape:deskcolor="#d1d1d1"
     inkscape:document-units="mm"
     inkscape:zoom="1.0167041"
     inkscape:cx="-98.848819"
     inkscape:cy="164.74803"
     inkscape:window-width="1920"
     inkscape:window-height="1009"
     inkscape:window-x="-8"
     inkscape:window-y="-8"
     inkscape:window-maximized="1"
     inkscape:current-layer="layer1"
     showgrid="false" /><defs
     id="defs1"><inkscape:path-effect
       effect="bspline"
       id="path-effect16"
       is_visible="true"
       lpeversion="1.3"
       weight="33.333333"
       steps="2"
       helper_size="0"
       apply_no_weight="true"
       apply_with_weight="true"
       only_selected="false"
       uniform="false" /><rect
       x="42.293525"
       y="118.02844"
       width="443.59022"
       height="65.899213"
       id="rect5" /></defs><g
     inkscape:label="Layer 1"
     inkscape:groupmode="layer"
     id="layer1"><g
       id="g21"
       transform="matrix(-1.0833699,-0.23851412,-0.26276046,0.97060212,132.19483,19.32768)"><path
         style="fill:none;fill-opacity:0.502336;stroke:#000000;stroke-width:0.565;stroke-dasharray:none;stroke-opacity:1"
         d="m 68.637545,87.591074 c 0,0 10.845953,0.784856 14.66426,-8.231874 l -0.955152,-2.440986"
         id="path19"
         sodipodi:nodetypes="ccc" /><path
         style="fill:none;fill-opacity:0.502336;stroke:#000000;stroke-width:0.565;stroke-dasharray:none;stroke-opacity:1"
         d="m 83.310974,79.348518 1.611885,-1.924264 z"
         id="path20"
         sodipodi:nodetypes="ccc" /><path
         style="fill:none;fill-opacity:0.502336;stroke:#000000;stroke-width:0.565;stroke-dasharray:none;stroke-opacity:1"
         d="m 83.316557,79.345965 2.158347,-0.127564"
         id="path21"
         sodipodi:nodetypes="cc" /></g><path
       style="fill:#1e8598;fill-opacity:0.67871487;stroke-width:0.263754"
       d="m 46.907782,59.708279 22.423191,-18.12902 1.688591,26.243873"
       id="path32" /><path
       style="fill:#a048a3;fill-opacity:0.545098;stroke-width:0.341925"
       d="m 43.763136,57.63466 c 0,0 1.592257,0.03089 1.756335,1.451137 0.164078,1.420244 -1.908689,1.291793 -2.746291,0.719378 -0.837604,-0.572413 -2.598321,-1.689302 -2.598321,-1.689302 3.126503,-0.486547 3.244348,-0.464781 3.588277,-0.481213 z"
       id="path3"
       sodipodi:nodetypes="csscc" /><g
       id="g10"
       transform="matrix(0.95009015,0,0,0.95009015,1.8256106,10.952604)"><path
         style="fill:#d38f42;fill-opacity:1;stroke:none;stroke-width:0.264583;stroke-opacity:1"
         d="m 39.22656,52.893031 c 1.406402,-0.638577 3.039309,-1.45017 4.575939,-1.672103 2.911895,-0.752803 5.928676,-0.80675 8.915831,-0.826739 2.044439,-0.222534 4.098395,0.162028 6.12495,0.404848 1.909781,0.392973 3.775284,0.935157 5.628357,1.532947 1.640584,0.322768 3.092893,1.154498 4.520381,1.987904 1.498267,0.928008 2.933823,1.937893 4.195029,3.175414 0.90649,0.792972 1.348382,1.990804 1.996779,2.987762 0.450613,1.120423 0.902712,2.240501 0.884874,3.469434 0.08562,1.071219 -0.382931,2.122112 -0.659117,3.149133 -0.374134,1.341105 -1.152935,2.533168 -2.088002,3.55253 -0.184105,5.440842 -0.0064,10.889603 -0.19518,16.32983 -0.260564,1.68134 -1.527987,3.053488 -2.322144,4.509817 -1.116541,0.926088 -2.111657,2.040925 -3.531386,2.49572 -0.693894,0.380083 -1.406862,0.673322 -2.21323,0.541316 -1.389656,0.0165 -2.77632,-0.12713 -4.164348,0"
         id="path9"
         sodipodi:nodetypes="cccccccccccccccc" /><path
         style="fill:#ebb981;fill-opacity:1;stroke:none;stroke-width:0.264583;stroke-opacity:1"
         d="m 33.245189,55.560454 c 3.760194,-1.923225 7.71584,-3.651005 11.979521,-3.981939 4.118416,-0.200039 8.378161,-0.41672 12.337842,0.951281 4.068065,1.213047 8.149522,3.262281 10.736306,6.727449 1.352643,2.441225 2.381214,5.358411 1.423265,8.130294 -0.308018,1.711595 -1.879083,2.840092 -2.143765,4.532334 -0.04089,5.149551 0.25657,10.320651 -0.07448,15.471679 -0.415235,3.098999 -2.915603,5.696867 -5.74835,6.82083 -3.00296,0.867629 -6.118271,-0.146809 -9.175922,0.112834 -4.942286,-0.05236 -9.902972,0.210587 -14.83353,-0.04782 -2.924862,-0.634393 -5.628787,-2.723158 -6.331355,-5.732429 -0.778649,-3.008841 -0.307877,-6.15418 -0.419752,-9.223582 0.03088,-2.541902 0.07028,-5.085296 -0.02681,-7.626315 -1.657238,-1.945418 -3.28991,-4.338275 -2.811662,-7.033668 -0.117082,-2.635391 1.232558,-4.907141 2.955652,-6.772367 0.666333,-0.815484 1.373867,-1.598563 2.133038,-2.328584 z"
         id="path8" /></g><ellipse
       style="fill:none;fill-opacity:1;stroke-width:0.252873"
       id="path1"
       cx="-83.135345"
       cy="-32.454605"
       rx="22.755259"
       ry="24.95643"
       transform="matrix(-0.84805578,-0.52990697,0.48259295,-0.87584476,0,0)" /><path
       id="path2"
       style="stroke-width:0.264583;fill:none"
       d="M 109.29926,97.068146 A 44.760647,44.760647 0 0 1 64.538614,141.82879 44.760647,44.760647 0 0 1 19.777967,97.068146 44.760647,44.760647 0 0 1 64.538614,52.307499 44.760647,44.760647 0 0 1 109.29926,97.068146 Z" /><g
       id="g8"
       transform="matrix(0.94730951,0,0,0.94730951,2.7662507,0.28372063)"><text
         xml:space="preserve"
         style="font-size:12.941px;font-family:'Adobe Kaiti Std';-inkscape-font-specification:'Adobe Kaiti Std';text-align:start;writing-mode:lr-tb;direction:ltr;text-anchor:start;fill:#0088ff;stroke-width:0.264583"
         id="text1"
         transform="matrix(1.4202463,0.41693579,-0.23447051,1.4251406,-8.8629041,-72.682441)"><textPath
           xlink:href="#path1"
           id="textPath1"
           style="font-style:italic;font-variant:normal;font-weight:normal;font-stretch:normal;font-size:12.941px;font-family:'Poplar Std';-inkscape-font-specification:'Poplar Std Italic';stroke-width:0.264583">a  toast  to</textPath></text><g
         id="text2"
         style="font-size:3.175px;stroke-width:0.264583"
         aria-label="you Birthday!!"
         transform="matrix(0.97779979,-0.03853117,0.040206,0.95649914,-2.9576919,7.0061943)"><text
           xml:space="preserve"
           transform="matrix(0.26458333,0,0,0.26458333,-10.409453,-10.669689)"
           id="text5"
           style="font-size:46.6667px;text-align:start;writing-mode:lr-tb;direction:ltr;white-space:pre;shape-inside:url(#rect5);fill:#000000" /><text
           xml:space="preserve"
           style="font-size:12.3472px;text-align:start;writing-mode:lr-tb;direction:ltr;text-anchor:start;fill:#000000;stroke-width:0.0700042"
           x="30.18741"
           y="30.447649"
           id="text6"><tspan
             sodipodi:role="line"
             id="tspan6"
             style="stroke-width:0.0700042"
             x="30.18741"
             y="30.447649" /></text><text
           xml:space="preserve"
           style="font-size:13.6881px;text-align:start;writing-mode:lr-tb;direction:ltr;text-anchor:start;fill:#0088ff;fill-opacity:1;stroke-width:0.0776065"
           id="text7"
           transform="matrix(-0.88453799,-0.51509579,0.46646816,-0.97674791,64.602389,208.56297)"><textPath
             xlink:href="#path2"
             id="textPath8"><tspan
               id="tspan7"
               style="font-style:normal;font-variant:normal;font-weight:bold;font-stretch:normal;font-family:'Rosewood Std';-inkscape-font-specification:'Rosewood Std Bold';fill:#0088ff;fill-opacity:1;stroke-width:0.0776065">your birthday!! </tspan><tspan
               style="fill:#0088ff;fill-opacity:1;stroke-width:0.0776065"
               id="tspan8" /></textPath></text></g></g><circle
       style="fill:#060401;fill-opacity:1;stroke:none;stroke-width:0.264583;stroke-opacity:1"
       id="circle10"
       cx="40.207249"
       cy="74.802032"
       r="2.9442379" /><g
       id="g12"><circle
         style="fill:#060401;fill-opacity:1;stroke:none;stroke-width:0.264583;stroke-opacity:1"
         id="path10"
         cx="56.272305"
         cy="75.078056"
         r="2.9442379" /><circle
         style="fill:#ffffff;fill-opacity:1;stroke:none;stroke-width:0.264583;stroke-opacity:1"
         id="path11"
         cx="57.382111"
         cy="73.614349"
         r="0.7156499" /></g><g
       id="g13"
       transform="translate(-16.069593,-0.22770678)"><circle
         style="fill:#060401;fill-opacity:1;stroke:none;stroke-width:0.264583;stroke-opacity:1"
         id="circle12"
         cx="56.272305"
         cy="75.078056"
         r="2.9442379" /><circle
         style="fill:#ffffff;fill-opacity:1;stroke:none;stroke-width:0.264583;stroke-opacity:1"
         id="circle13"
         cx="57.382111"
         cy="73.614349"
         r="0.7156499" /></g><g
       id="g14"
       transform="matrix(0.88561082,0,0,0.96968382,5.3607858,1.6183313)"><path
         style="fill:#000000;fill-opacity:1;stroke:none;stroke-width:0.316409;stroke-opacity:1"
         id="path13"
         sodipodi:type="arc"
         sodipodi:cx="48.403954"
         sodipodi:cy="83.731033"
         sodipodi:rx="4.4240222"
         sodipodi:ry="6.0504947"
         sodipodi:start="0"
         sodipodi:end="3.1292217"
         sodipodi:open="true"
         sodipodi:arc-type="arc"
         d="m 52.827976,83.731033 a 4.4240222,6.0504947 0 0 1 -4.396658,6.050379 4.4240222,6.0504947 0 0 1 -4.451048,-5.97553" /><path
         id="path14"
         style="fill:#fb84ea;stroke-width:0.302741"
         d="m 45.714867,88.558678 c 0.413003,-1.433181 1.492014,-2.396871 2.70963,-2.420034 1.217617,-0.02316 2.31955,0.899039 2.767193,2.315848 0,0 -1.149257,1.352886 -2.722681,1.346373 -1.698356,-0.007 -2.754142,-1.242187 -2.754142,-1.242187 z"
         sodipodi:nodetypes="cscsc" /></g><ellipse
       style="fill:#ee73dc;fill-opacity:0.502336;stroke:none;stroke-width:0.264583;stroke-opacity:1"
       id="path15"
       cx="39.0019"
       cy="81.934647"
       rx="3.6802974"
       ry="1.8631505" /><ellipse
       style="fill:#ee73dc;fill-opacity:0.502336;stroke:none;stroke-width:0.264583;stroke-opacity:1"
       id="ellipse16"
       cx="56.697971"
       cy="82.129822"
       rx="3.6802974"
       ry="1.8631505" /><g
       id="g18"><path
         style="fill:none;fill-opacity:0.502336;stroke:#000000;stroke-width:0.565;stroke-opacity:1;stroke-dasharray:none"
         d="m 68.637545,87.591074 c 0,0 10.845953,0.784856 14.66426,-8.231874 l -0.955152,-2.440986"
         id="path16"
         sodipodi:nodetypes="ccc" /><path
         style="fill:none;fill-opacity:0.502336;stroke:#000000;stroke-width:0.565;stroke-opacity:1;stroke-dasharray:none"
         d="m 83.310974,79.348518 1.611885,-1.924264 z"
         id="path17"
         sodipodi:nodetypes="ccc" /><path
         style="fill:none;fill-opacity:0.502336;stroke:#000000;stroke-width:0.565;stroke-opacity:1;stroke-dasharray:none"
         d="m 83.316557,79.345965 2.158347,-0.127564"
         id="path18"
         sodipodi:nodetypes="cc" /></g><ellipse
       style="fill:#949494;fill-opacity:0.77336448;stroke:none;stroke-width:0.564999;stroke-dasharray:none;stroke-opacity:1"
       id="path22"
       cx="-50.661919"
       cy="59.369591"
       rx="1.3341079"
       ry="3.1742566"
       transform="rotate(-54.355771)" /><path
       style="fill:#969696;fill-opacity:0.352941;stroke:#979797;stroke-width:1.065;stroke-dasharray:none;stroke-opacity:0.356863"
       d="M 19.229553,75.63011 23.53971,69.953555"
       id="path23"
       sodipodi:nodetypes="cc" /><path
       style="fill:none;fill-opacity:0.772549;stroke:#979797;stroke-width:1.065;stroke-dasharray:none;stroke-opacity:0.35514018"
       d="m 26.544104,61.155536 c -0.289445,0.401434 -9.020386,17.139336 4.619193,2.797539"
       id="path24"
       sodipodi:nodetypes="cc" /><path
       style="fill:#a149a4;fill-opacity:0.544393;stroke:none;stroke-width:1.065;stroke-dasharray:none;stroke-opacity:0.356863"
       d="m 46.061827,55.911343 c 0.651508,0.186144 1.380694,0.169918 1.365453,-0.560863 0.09104,-1.360568 -0.943781,-2.525411 -2.085404,-3.127549 -1.418393,-0.785279 -3.121166,-0.54843 -4.646437,-0.279938 -2.320081,0.478813 -4.638303,1.330335 -6.771959,2.358138 -0.244149,0.177024 0.547694,-0.07649 0.732934,-0.04442 1.163663,-0.116443 2.337823,-0.153582 3.492762,-0.342057 -0.261599,-0.238574 -1.181022,0.100174 -1.653391,0.253387 -1.302527,0.482664 -2.610338,1.018885 -3.74697,1.828487 -0.628512,0.56428 0.558967,0.430181 0.894859,0.338746 1.559814,-0.307568 3.148253,-0.578056 4.623517,-1.190216 0.520717,-0.284625 -0.06929,0.01258 -0.248749,0.103726 l -6.529848,3.264923 c 3.506399,0.0021 6.827483,-1.279452 10.119239,-2.328758 1.399686,-0.378671 3.608177,-0.515265 3.99858,-0.403722 z"
       id="path26"
       sodipodi:nodetypes="scccccccccccccss" /><path
       style="fill:#a048a3;fill-opacity:0.545098;stroke-width:0.217259"
       d="m 32.834542,52.929282 c 0,0 1.678551,-2.472455 -1.238427,-1.189036 -2.016409,0.887185 -2.727789,2.427871 -2.727789,2.427871 1.686955,-0.02905 3.411173,-0.558285 3.966216,-1.238835 z"
       id="path4"
       sodipodi:nodetypes="cscc" /><path
       style="fill:#a048a3;fill-opacity:0.545098;stroke-width:0.264583"
       d="m 38.665072,50.219847 c 0.992992,0.278702 1.845781,0.696722 2.635969,0.439628 0,0 0.902309,-1.019241 -0.578748,-1.401591 -0.378261,-0.09766 -1.408562,0.565467 -2.057221,0.961963 z"
       id="path6"
       sodipodi:nodetypes="ccsc" /><path
       style="fill:#a048a3;fill-opacity:0.545098;stroke-width:0.287632"
       d="m 33.621275,61.529529 c 1.17915,0.261689 2.220817,0.670681 3.081405,0.385068 0,0 0.864892,-1.074492 -0.888405,-1.430424 -0.447794,-0.09092 -1.516656,0.619643 -2.192989,1.045363 z"
       id="path7"
       sodipodi:nodetypes="ccsc" /><path
       style="fill:#a048a3;fill-opacity:0.545098;stroke-width:0.238486"
       d="m 28.870911,58.436275 c 0,0 0.750113,-0.746639 1.789001,-0.317397 1.038885,0.429241 0.0025,1.36968 -0.769472,1.563783 -0.771997,0.194105 -2.336191,0.632981 -2.336191,0.632981 1.101578,-1.661537 1.170314,-1.709839 1.316662,-1.879367 z"
       id="path12"
       sodipodi:nodetypes="csscc" /><path
       style="fill:#a048a3;fill-opacity:0.545098;stroke-width:0.264583"
       d="m 43.719702,51.103908 c 0,0 0.813239,-0.390356 0.130117,-0.553003 -0.68312,-0.162648 -1.333712,0.455414 -1.333712,0.455414 z"
       id="path25" /><path
       style="fill:#a048a3;fill-opacity:0.545098;stroke-width:0.264583"
       d="m 38.092091,58.715819 c 0,0 0.422884,-1.008417 -0.520472,-0.553003 -0.943356,0.455414 -0.68312,0.878298 -0.68312,0.878298 z"
       id="path27" /><path
       style="fill:#a048a3;fill-opacity:0.545098;stroke-width:0.264583"
       d="m 47.232892,57.609813 c 0,0 1.073476,1.040948 -0.162647,0.910828 -1.236123,-0.130116 -1.236123,-0.71565 -1.236123,-0.71565 z"
       id="path28" /><path
       style="fill:#a048a3;fill-opacity:0.545098;stroke-width:0.264583"
       d="m 35.262021,53.088209 c 0.446854,0.05958 0.944498,-1.654154 -0.487942,-1.171065 -0.696364,0.234848 -0.875693,1.467739 -0.878298,1.463831 z"
       id="path29"
       sodipodi:nodetypes="cscc" /><path
       style="fill:#a048a3;fill-opacity:0.545098;stroke-width:0.264583"
       d="m 32.461373,56.932474 c 0.05826,-0.06366 0.05212,-0.409324 -0.212769,-0.19264 -0.214386,0.175373 -0.258769,0.342153 -0.258769,0.342153 z"
       id="path30"
       sodipodi:nodetypes="cscc" /><path
       style="fill:#a048a3;fill-opacity:0.545098;stroke-width:0.264583"
       d="m 34.115356,54.816339 c 0,0 0.113853,-0.540803 -0.252105,-0.231772 -0.365956,0.309031 -0.37409,0.418818 -0.37409,0.418818 0.37387,-0.07236 0.60972,-0.136349 0.626195,-0.187046 z"
       id="path31"
       sodipodi:nodetypes="cscc" /><path
       style="fill:#1e8598;fill-opacity:0.678715;stroke-width:0.264583"
       d="m 69.787637,54.008363 -1.794145,0.920073"
       id="path37" /><path
       style="fill:#1e8598;fill-opacity:0.678715;stroke-width:0.264583"
       d="m 70.293679,57.412638 c -1.334109,0.276021 -9.798793,2.438196 -9.798793,2.438196 l -3.910315,-0.782063 13.663102,-4.416356 z"
       id="path39" /><path
       style="fill:#1e8598;fill-opacity:0.678715;stroke-width:0.264583"
       d="m 69.97492,47.236966 -12.328996,3.58829 3.680299,-3.08225 8.464684,-2.898233 z"
       id="path41" /><path
       style="fill:#1e8598;fill-opacity:0.678715;stroke-width:0.264583"
       d="m 70.057163,52.105028 -19.403213,6.533003 -3.084314,0.07941 2.477098,-2.02346 19.969146,-7.258436 z"
       id="path40" /><path
       style="fill:#1e8598;fill-opacity:0.678715;stroke-width:0.264583"
       d="m 69.327601,42.921467 c -0.414034,0.184015 -2.208179,0.598048 -2.208179,0.598048 l 2.162175,-1.840148 z"
       id="path42" /><path
       style="fill:#1e8598;fill-opacity:0.678715;stroke-width:0.264583"
       d="m 70.523697,59.804831 c -0.184015,0.046 -4.830389,1.748142 -4.830389,1.748142 l 2.346187,1.380111 2.622214,-1.058087 z"
       id="path43" /><path
       style="fill:#1e8598;fill-opacity:0.678715;stroke-width:0.264583"
       d="m 70.615703,63.899163 -0.782063,0.322024 1.012081,0.782064 z"
       id="path44" /><path
       style="fill:#ffffff;fill-opacity:1;stroke-width:0.264583"
       d="m 69.534616,44.255576 1.311108,20.839683 c 0,0 4.784386,-6.877558 4.784386,-6.969564 0,-0.09201 -3.036247,-15.411246 -3.036247,-15.411246 z"
       id="path50" /><path
       style="fill:#ffffff;fill-opacity:1;stroke-width:0.264583"
       d="M 62.09889,47.39554 47.818423,58.976056 47.558187,58.699555 c 0,0 0.748181,-3.252954 2.862598,-5.042079 2.114421,-1.789126 9.466099,-6.326995 9.726335,-6.375789 0.260236,-0.04879 1.95177,0.113853 1.95177,0.113853 z"
       id="path51" /></g></svg>
